# xmcd CD database file
#
# Track frame offsets:
#	150
#	20358
#	43955
#	59627
#	78463
#
# Disc length: 1350 seconds
#
# Revision: 0
# Processed by: cddbd v1.4PL0 Copyright (c) Steve Scherf et al.
# Submitted via: CDex 1.51
#
DISCID=3f054405
DTITLE=Jens Karnstedt - Singin' into a closet EP
DYEAR=2003
DGENRE=Country
TTITLE0=Here To Stay
TTITLE1=Won't Treat You Bad
TTITLE2=Mirrorballs And Midnight Train
TTITLE3=Long-Since Brother
TTITLE4=Only Lovers, Only Liers
EXTD=YEAR: 2003
EXTT0=
EXTT1=
EXTT2=
EXTT3=
EXTT4=
PLAYORDER=
